<svg xmlns="http://www.w3.org/2000/svg" xmlns:xlink="http://www.w3.org/1999/xlink" width="500" zoomAndPan="magnify" viewBox="0 0 375 374.999991" height="500" preserveAspectRatio="xMidYMid meet" version="1.0"><defs><g/><clipPath id="e26784e151"><path d="M 59.757812 86.601562 L 365.808594 86.601562 L 365.808594 315.023438 L 59.757812 315.023438 Z M 59.757812 86.601562 " clip-rule="nonzero"/></clipPath><clipPath id="f502b13f60"><path d="M 203.335938 86.601562 L 359.359375 86.601562 C 361.5 86.601562 363.472656 87.753906 364.527344 89.617188 C 365.578125 91.480469 365.546875 93.765625 364.445312 95.597656 L 237.738281 306.027344 C 234.378906 311.609375 228.339844 315.023438 221.824219 315.023438 L 65.796875 315.023438 C 63.65625 315.023438 61.683594 313.871094 60.632812 312.007812 C 59.578125 310.148438 59.609375 307.863281 60.714844 306.027344 L 187.417969 95.597656 C 190.777344 90.015625 196.820312 86.601562 203.335938 86.601562 Z M 203.335938 86.601562 " clip-rule="nonzero"/></clipPath></defs><rect x="-37.5" width="450" fill="#ffffff" y="-37.499999" height="449.999989" fill-opacity="1"/><rect x="-37.5" width="450" fill="#ffffff" y="-37.499999" height="449.999989" fill-opacity="1"/><g clip-path="url(#e26784e151)"><g clip-path="url(#f502b13f60)"><path fill="#000000" d="M 55.296875 86.601562 L 370.269531 86.601562 L 370.269531 315.023438 L 55.296875 315.023438 Z M 55.296875 86.601562 " fill-opacity="1" fill-rule="nonzero"/></g></g><g fill="#000000" fill-opacity="1"><g transform="translate(13.873887, 206.321812)"><g><path d="M 76.03125 -134.859375 C 85.957031 -134.859375 95.726562 -132.816406 105.34375 -128.734375 C 114.957031 -124.660156 123.140625 -119.1875 129.890625 -112.3125 L 110.21875 -89.015625 C 105.882812 -94.359375 100.691406 -98.585938 94.640625 -101.703125 C 88.597656 -104.828125 82.582031 -106.390625 76.59375 -106.390625 C 66.03125 -106.390625 57.179688 -102.664062 50.046875 -95.21875 C 42.910156 -87.769531 39.34375 -78.570312 39.34375 -67.625 C 39.34375 -56.414062 42.910156 -47.050781 50.046875 -39.53125 C 57.179688 -32.019531 66.03125 -28.265625 76.59375 -28.265625 C 82.195312 -28.265625 88.023438 -29.664062 94.078125 -32.46875 C 100.128906 -35.269531 105.507812 -39.09375 110.21875 -43.9375 L 130.078125 -22.921875 C 122.816406 -15.535156 114.253906 -9.613281 104.390625 -5.15625 C 94.523438 -0.695312 84.6875 1.53125 74.875 1.53125 C 54.757812 1.53125 38.015625 -5.023438 24.640625 -18.140625 C 11.265625 -31.265625 4.578125 -47.628906 4.578125 -67.234375 C 4.578125 -86.460938 11.390625 -102.539062 25.015625 -115.46875 C 38.648438 -128.394531 55.65625 -134.859375 76.03125 -134.859375 Z M 76.03125 -134.859375 "/></g></g></g><g fill="#ffffff" fill-opacity="1"><g transform="translate(148.448491, 274.433592)"><g><path d="M 61.125 -79.46875 L 67.421875 -78.5 C 77.484375 -76.976562 85.539062 -73.03125 91.59375 -66.65625 C 97.644531 -60.289062 100.671875 -52.082031 100.671875 -42.03125 C 100.671875 -29.164062 95.988281 -18.6875 86.625 -10.59375 C 77.269531 -2.507812 64.882812 1.53125 49.46875 1.53125 C 40.425781 1.53125 31.382812 0.0664062 22.34375 -2.859375 C 13.300781 -5.796875 5.726562 -9.742188 -0.375 -14.703125 L 13.375 -40.5 C 23.4375 -29.675781 34.578125 -24.265625 46.796875 -24.265625 C 53.421875 -24.265625 58.515625 -25.789062 62.078125 -28.84375 C 65.640625 -31.894531 67.421875 -36.160156 67.421875 -41.640625 C 67.421875 -52.847656 60.484375 -58.453125 46.609375 -58.453125 L 25.21875 -58.453125 L 25.21875 -76.59375 L 55.015625 -107.546875 L 6.296875 -107.546875 L 6.296875 -133.515625 L 94.546875 -133.515625 L 94.546875 -114.234375 Z M 61.125 -79.46875 "/></g></g></g></svg>